<?xml version="1.0" encoding="utf-8"?>
<!-- Generator: Adobe Illustrator 19.2.1, SVG Export Plug-In . SVG Version: 6.00 Build 0)  -->
<svg version="1.1" id="Ebene_1" xmlns="http://www.w3.org/2000/svg" xmlns:xlink="http://www.w3.org/1999/xlink" x="0px" y="0px"
	 viewBox="0 0 22.3 21.6" style="enable-background:new 0 0 22.3 21.6;" xml:space="preserve">
<style type="text/css">
	.st0{display:none;fill:none;}
	.st1{fill:#FFFFFF;stroke:#000000;stroke-miterlimit:10;}
</style>
<title>library-15.svg</title>
<rect x="2.5" y="2" class="st0" width="19" height="19"/>
<circle class="st1" cx="11.7" cy="11.1" r="9.9"/>
<path d="M11.7,8.7c0,0-2-2.2-7.2-2.2v9c5.3,0,7.2,2.2,7.2,2.2s2-2.2,7.3-2.2v-9C13.7,6.5,11.7,8.7,11.7,8.7z M17.9,14.4
	c-2.2,0.1-4.3,0.7-6.2,1.9c-1.8-1.2-3.9-1.8-6.1-1.9V7.6c3.8,0.3,5.3,1.8,5.3,1.8l0.8,0.8l0.8-0.8c0,0,1.6-1.5,5.4-1.8V14.4z
	 M12.3,14.6l-0.1-0.2c1.5-0.7,3-1.1,4.6-1.3v0.2C15.2,13.6,13.7,14,12.3,14.6L12.3,14.6z M12.3,13.5l-0.1-0.2c1.5-0.7,3-1.1,4.6-1.3
	v0.2C15.2,12.5,13.7,12.9,12.3,13.5L12.3,13.5z M12.3,12.4l-0.1-0.2c1.5-0.7,3-1.1,4.6-1.3v0.2C15.2,11.3,13.7,11.8,12.3,12.4
	L12.3,12.4z M12.3,11.3l-0.1-0.2c1.5-0.7,3-1.1,4.6-1.3V10C15.2,10.2,13.7,10.7,12.3,11.3L12.3,11.3z M11,14.6
	c-1.4-0.6-2.9-1.1-4.4-1.3v-0.2c1.6,0.2,3.1,0.7,4.5,1.4L11,14.6z M11,13.5c-1.4-0.6-2.9-1.1-4.4-1.3V12c1.6,0.2,3.1,0.7,4.5,1.4
	L11,13.5z M11,12.4c-1.4-0.6-2.9-1.1-4.4-1.3v-0.2c1.6,0.2,3.1,0.7,4.5,1.4L11,12.4z M11,11.3c-1.4-0.6-2.9-1.1-4.4-1.3V9.8
	c1.6,0.2,3.1,0.7,4.5,1.4L11,11.3z"/>
</svg>
